<?xml version="1.0" encoding="utf-8"?>
<!-- Generator: Adobe Illustrator 16.0.0, SVG Export Plug-In . SVG Version: 6.00 Build 0)  -->
<!DOCTYPE svg PUBLIC "-//W3C//DTD SVG 1.1//EN" "http://www.w3.org/Graphics/SVG/1.1/DTD/svg11.dtd">
<svg version="1.1" id="Layer_1" xmlns="http://www.w3.org/2000/svg" xmlns:xlink="http://www.w3.org/1999/xlink" x="0px" y="0px"
	 width="1800px" height="1300px" viewBox="0 0 1800 1300" enable-background="new 0 0 1800 1300" xml:space="preserve">
<rect x="226" y="0.317" fill="#FFFFFF" width="1346.875" height="1300"/>
<g>
	<path fill-rule="evenodd" clip-rule="evenodd" fill="#3880BF" d="M399.345,782.607c3.393-11.748,11.823-45.063,15.922-55.301
		c13.511-33.804,43.64-41.856,68.506-41.279c28.563,0.668,115.755,2.555,155.547-30.638c12.616-10.517,12.022-30.206-2.6-36.768
		c-12.193-5.476-32.516,0.896-30.13,19.488c0,0-25.954-17.696-17.007-46.638c10.438-33.748,46.083-43.056,61.458-45.644
		c28.339-4.775,65.634,0,95.471,21.781c0,0,103.106-28.227,146.506-131.165c19.509-46.255,60.238-53.51,84.123-50.048
		c96.932,14.036,174.814,27.823,248.306,3.771c66.505-21.768,108.441-82.352,90.539-124.456
		c-14.665-34.458-83.279-13.236-148.312,9.132c144.599-103.579,130.186-285.653,23.706-221.436
		C987.383,176.452,951.87,185.339,901.849,184.672c102.417-50.014,169.506-109.491,155.9-155.276
		c-15.187-51.103-76.299,52.532-213.031,88.526c-219.83,57.867-346.818,150.102-436.215,270.024
		c-19.19,25.743-89.896,119.79,105.81,16.37c-39.211,28.555-335.731,272.877-19.1,115.355
		c-9.39,12.537-172.495,117.98-186.389,127.875c-41.178,29.328-60.093,57.865-56.464,71.213c4.621,16.951,59.444-4.884,69.433-9.43
		C387.969,679.182,348.634,772.76,399.345,782.607z"/>
	<path fill-rule="evenodd" clip-rule="evenodd" fill="#44B894" d="M1356.802,615.733c40.775-32.24,168.018-150.441,145.589-195.507
		c-23.155-46.552-142.88-7.811-189.118,27.697c22.682,6.997,67.844,19.427,109.904,22.05c0,0-0.465,25.837-141.971-4.767
		c0,0,79.093,27.354,133.429,63.404c0,0-54.372-5.502-112.513-29.765c0,0,58.296,27.604,98.118,64.394
		c0,0-61.087-28.64-85.169-35.792c0,0,37.925,20.934,60.355,45.476c0,0-70.438-39.922-118.467-45.295
		c0,0,36.292,12.882,52.862,30.006c0,0-44.708-15.785-76.394-10.402c-31.802,5.408-26.788,20.077-56.002,12.296
		c0,0-5.937,6.944-19.335,3.681c0,0-7.044,11.026-22.743,12.942c0,0,0.483,15.166-11.983,17.176c0,0,0.15,12.891-10.93,14.419
		c0,0,0.489,13.016-12.363,15.306c0,0,2.441,15.014-14.315,19.031c0,0-0.292,13.908-17.103,16.669c0,0,3.282,21.101-17.291,25.364
		c0,0,2.723,19.29-21.814,23.025c0,0,2.664,17.038-8.303,21.072c0,0,7.786,19.582-7.426,28.236c0,0,89.196,51.314,178.696,74.585
		c21.164,5.787-18.063,17.348-18.167,17.382l0,0c3.891,16.439-12.861,16.056-12.951,16.051v0.005
		c5.552,19.095-11.862,21.137-11.885,21.141l0,0c5.325,25.041-13.154,22.058-13.154,22.058
		c1.427,16.672-20.645,10.558-20.645,10.558c-3.668,18.075-26.755,6.031-27.289,5.752c-0.007,0-0.016,0.005-0.029,0.005
		c-2.372,15.753-26.209,10.562-26.743,10.445c-0.011,0-0.016,0.009-0.024,0.013c0.061,17.687-21.2,13.467-21.33,13.441
		c0,0.005-0.009,0.005-0.009,0.009c-2.453,22.19-20.908,19.312-21.033,19.288c0,0,0,0.005-0.007,0.01
		c-0.539,12.34-12.002,39.264-18.267,21.959c0,0-53.495-116.746-101.219-147.174c0,0,2.787,10.6-26.134,2.179
		c0,0,0.448,7.361-21.434,0.25c0,0-2.419,8.145-23.814,0.593c0,0-2.355,9.404-23.577,5.611c0,0-3.062,13.539-24.288,9.748
		c0,0,0.956,14.319-18.863,12.704c0,0-5.27,10.266-23.065,7.175c0,0-2.949,10.314-18.708,7.745c0,0-5.111,18.746-30.849,13.614
		c0,0-2.372,13.14-19.031,9.945c0,0-4.706,6.351-14.38,4.326c0,0,0.439,11.769-14.95,13.975c0,0,5.507,13.922-8.456,20.299
		c0,0,5.434,24.128-13.842,29.059c0,0,3.156,24.317-16.357,30.966c0,0,7.84,39.965-1.533,49.023
		c-9.369,9.059-17.068-0.418-17.068-0.418s12.813,51.24,8.491,69.096c-4.323,17.864-34.148-38.363-44.081-60.839
		c0,0,13.847,68.813,11.522,87.93c-2.342,19.122-28.847-29.2-40.937-63.416c0,0,9.833,50.854,3.487,69.193
		c-6.347,18.338-19.083,3.958-49.777-100.699c0,0,11.552,69.136,4.973,86.155c-5.64,14.623-16.525,22.729-32.434-56.406
		c0,0-3.071,12.882-11.165,17.462c-8.082,4.578-14.966-6.622-27.719-82.852c0,0-2.76,6.114-9.214,7.923
		c0,0-15.319-26.261-17.972-62.465c-1.498-20.55,0.379-71.249,8.03-125.25c-71.175,17.3-135.243,42.583-137.636,98.073
		c-3.308,76.933,44.093,94.691,88.906,90.692c12.137,25.324-9.413,92.525-89.065,133.494c14.221,35.276,92.256,36.57,117.96,25.58
		c-240.114,210.697,171.215-1.396,224.096-17.826c-156.332,150.958,33.501,86.817,87.205,59.262
		c45.94-23.567,102.421-59.751,113.409-67.353c1.601,16.703-88.135,77.734-57.608,83.073c31.818,5.57,107.295-25.791,135.384-41.209
		c116.801-64.093,236.643-124.034,346.048-200.12c50.465-35.1,87.395-66.95,74.003-88.026c-5.337-8.421-22.92-9.359-59.407,4.364
		c-49.978,18.813-27.448-37.388,22.911-78.998c83.98-69.41,273.778-149.273,267.07-173.986
		c-6.709-24.713-59.108-12.561-104.54,3.778c57.674-45.874,126.257-79.091,134.197-121.884
		C1559.37,500.581,1421.843,605.589,1356.802,615.733z"/>
</g>
</svg>
