<?xml version="1.0" encoding="utf-8"?>
<!-- Generator: Adobe Illustrator 16.0.0, SVG Export Plug-In . SVG Version: 6.00 Build 0)  -->
<!DOCTYPE svg PUBLIC "-//W3C//DTD SVG 1.1//EN" "http://www.w3.org/Graphics/SVG/1.1/DTD/svg11.dtd">
<svg version="1.1" id="Layer_1" xmlns="http://www.w3.org/2000/svg" xmlns:xlink="http://www.w3.org/1999/xlink" x="0px" y="0px"
	 width="1800px" height="1300px" viewBox="0 0 1800 1300" enable-background="new 0 0 1800 1300" xml:space="preserve">
<g>
	<path fill-rule="evenodd" clip-rule="evenodd" fill="#FFFFFF" d="M394.828,783.803c3.424-11.852,11.932-45.471,16.066-55.801
		c13.633-34.108,44.035-42.232,69.125-41.651c28.821,0.673,116.801,2.576,156.953-30.914c12.729-10.612,12.129-30.479-2.624-37.101
		c-12.304-5.526-32.81,0.903-30.403,19.664c0,0-26.188-17.856-17.161-47.059c10.53-34.054,46.499-43.446,62.014-46.058
		c28.595-4.817,66.226,0,96.334,21.979c0,0,104.037-28.481,147.829-132.35c19.684-46.671,60.781-53.992,84.883-50.5
		c97.805,14.164,176.393,28.074,250.547,3.806c67.107-21.965,109.421-83.097,91.356-125.581
		c-14.798-34.769-84.032-13.354-149.649,9.214c145.903-104.514,131.361-288.233,23.921-223.436
		c-205.84,124.157-241.673,133.123-292.147,132.451c103.342-50.466,171.036-110.48,157.308-156.679
		c-15.322-51.565-76.988,53.007-214.955,89.326C622.409,171.503,494.274,264.57,404.069,385.577
		c-19.363,25.975-90.708,120.871,106.765,16.518c-39.564,28.813-338.764,275.342-19.271,116.396
		c-9.476,12.65-174.053,119.046-188.072,129.03c-41.55,29.594-60.636,58.389-56.974,71.857c4.662,17.104,59.979-4.925,70.058-9.514
		C383.351,679.444,343.66,773.865,394.828,783.803z"/>
	<path fill-rule="evenodd" clip-rule="evenodd" fill="#FFFFFF" d="M1360.933,615.421c41.144-32.532,169.532-151.8,146.901-197.273
		c-23.362-46.972-144.168-7.882-190.823,27.948c22.886,7.059,68.454,19.602,110.895,22.249c0,0-0.469,26.07-143.254-4.81
		c0,0,79.809,27.6,134.636,63.977c0,0-54.86-5.553-113.529-30.033c0,0,58.823,27.851,99.007,64.976c0,0-61.641-28.899-85.938-36.116
		c0,0,38.265,21.123,60.9,45.886c0,0-71.075-40.282-119.537-45.704c0,0,36.619,12.999,53.342,30.276
		c0,0-45.114-15.926-77.084-10.496c-32.09,5.457-27.033,20.259-56.511,12.408c0,0-5.988,7.008-19.509,3.714
		c0,0-7.108,11.125-22.947,13.059c0,0,0.485,15.302-12.093,17.331c0,0,0.154,13.007-11.028,14.549c0,0,0.494,13.133-12.475,15.444
		c0,0,2.464,15.15-14.443,19.202c0,0-0.298,14.037-17.257,16.821c0,0,3.31,21.291-17.449,25.594c0,0,2.747,19.464-22.013,23.233
		c0,0,2.688,17.191-8.377,21.263c0,0,7.855,19.76-7.492,28.49c0,0,90.004,51.779,180.311,75.26
		c21.354,5.837-18.227,17.503-18.334,17.536l0,0c3.929,16.588-12.977,16.201-13.066,16.198v0.003
		c5.604,19.268-11.969,21.328-11.991,21.333l0,0c5.374,25.266-13.271,22.257-13.271,22.257c1.437,16.821-20.834,10.65-20.834,10.65
		c-3.702,18.238-26.997,6.087-27.533,5.806c-0.011,0-0.02,0.003-0.031,0.003c-2.394,15.898-26.446,10.659-26.984,10.541
		c-0.012,0-0.018,0.008-0.025,0.014c0.062,17.846-21.393,13.588-21.521,13.563c0,0.002-0.009,0.002-0.009,0.008
		c-2.478,22.392-21.098,19.484-21.224,19.462c0,0,0,0.006-0.009,0.012c-0.542,12.448-12.106,39.616-18.429,22.155
		c0,0-53.98-117.801-102.135-148.501c0,0,2.813,10.694-26.371,2.197c0,0,0.452,7.428-21.627,0.252c0,0-2.441,8.22-24.028,0.598
		c0,0-2.376,9.488-23.791,5.661c0,0-3.088,13.663-24.506,9.836c0,0,0.964,14.449-19.034,12.822c0,0-5.317,10.354-23.272,7.237
		c0,0-2.976,10.408-18.876,7.815c0,0-5.157,18.914-31.127,13.736c0,0-2.396,13.26-19.204,10.036c0,0-4.748,6.409-14.51,4.366
		c0,0,0.443,11.873-15.084,14.099c0,0,5.557,14.049-8.532,20.483c0,0,5.482,24.348-13.967,29.32c0,0,3.184,24.538-16.505,31.245
		c0,0,7.911,40.327-1.546,49.467c-9.453,9.141-17.221-0.421-17.221-0.421s12.929,51.704,8.566,69.721
		c-4.36,18.024-34.456-38.711-44.479-61.389c0,0,13.973,69.434,11.627,88.722c-2.364,19.294-29.108-29.463-41.308-63.989
		c0,0,9.923,51.313,3.519,69.821c-6.404,18.502-19.255,3.993-50.226-101.608c0,0,11.656,69.759,5.018,86.931
		c-5.691,14.756-16.675,22.937-32.727-56.914c0,0-3.099,12.998-11.265,17.62c-8.155,4.617-15.103-6.682-27.971-83.6
		c0,0-2.785,6.168-9.297,7.992c0,0-15.457-26.497-18.133-63.029c-1.513-20.736,0.381-71.893,8.102-126.38
		c-71.818,17.456-136.464,42.968-138.879,98.959c-3.337,77.626,44.491,95.547,89.708,91.511
		c12.247,25.555-9.497,93.363-89.869,134.7c14.35,35.593,93.089,36.9,119.025,25.81c-242.281,212.601,172.762-1.405,226.12-17.985
		c-157.743,152.321,33.805,87.602,87.993,59.797c46.354-23.78,103.346-60.294,114.433-67.96
		c1.616,16.852-88.931,78.436-58.129,83.821c32.105,5.621,108.264-26.023,136.607-41.581
		c117.856-64.672,238.78-125.153,349.172-201.925c50.923-35.416,88.186-67.557,74.673-88.823
		c-5.385-8.497-23.129-9.445-59.945,4.406c-50.43,18.979-27.695-37.729,23.118-79.713c84.739-70.037,276.251-150.62,269.481-175.561
		c-6.769-24.935-59.64-12.67-105.483,3.817c58.194-46.291,127.397-79.808,135.407-122.988
		C1565.33,499.227,1426.559,605.185,1360.933,615.421z"/>
</g>
</svg>
